<svg width="50" height="50" viewBox="0 0 50 50" fill="none" xmlns="http://www.w3.org/2000/svg">
<circle cx="25" cy="25" r="25" fill="#FF817F"/>
<path d="M38.75 18.75H41.25V23.75H38.75V18.75ZM8.75 18.75H11.25V23.75H8.75V18.75ZM30 30H32.5V32.5H30V30ZM17.5 30H20V32.5H17.5V30Z" fill="black"/>
<path d="M31.25 10H18.75C17.093 10.002 15.5044 10.6611 14.3328 11.8328C13.1611 13.0044 12.502 14.593 12.5 16.25V33.75C12.5007 34.4128 12.7643 35.0483 13.233 35.517C13.7017 35.9857 14.3372 36.2493 15 36.25V40H17.5V36.25H32.5V40H35V36.25C35.6627 36.249 36.298 35.9853 36.7667 35.5167C37.2353 35.048 37.499 34.4127 37.5 33.75V16.25C37.498 14.593 36.8389 13.0044 35.6672 11.8328C34.4956 10.6611 32.907 10.002 31.25 10ZM35 17.5V25H15V17.5H35ZM18.75 12.5H31.25C32.023 12.5023 32.7764 12.7438 33.4067 13.1915C34.0369 13.6391 34.5132 14.2709 34.77 15H15.23C15.4868 14.2709 15.9631 13.6391 16.5933 13.1915C17.2236 12.7438 17.977 12.5023 18.75 12.5ZM15 33.75V27.5H35.0012L35.0025 33.75H15Z" fill="black"/>
</svg>
