<svg width="50" height="50" viewBox="0 0 50 50" fill="none" xmlns="http://www.w3.org/2000/svg">
<circle cx="25" cy="25" r="25" fill="#FF817F"/>
<path d="M35.8906 31.7912V20.9531H27.6875V31.7912H35.8906ZM29.875 23.1406H33.7031V29.6037H29.875V23.1406Z" fill="black"/>
<path d="M26.5307 6.30701C26.0894 5.90094 25.5081 5.68121 24.9085 5.69375C24.3089 5.70628 23.7373 5.95012 23.3133 6.37427L10.1875 19.5001V37.9062H17.8438V26.9687H22.2188V37.9062H40.8125V19.4463L26.5307 6.30701ZM38.625 35.7187H24.4062V24.7812H15.6562V35.7187H12.375V20.4062L25.0496 7.92077V7.91694L38.625 20.4062V35.7187Z" fill="black"/>
<path d="M26.5307 6.30713C26.0894 5.90107 25.5081 5.68133 24.9085 5.69387C24.3089 5.7064 23.7373 5.95024 23.3133 6.3744L10.1875 19.5002V37.9063H17.8438V26.9688H22.2188V37.9063H40.8125V19.4464L26.5307 6.30713ZM38.625 35.7188H24.4062V24.7813H15.6562V35.7188H12.375V20.4063L25.0496 7.92089V7.91706L38.625 20.4063V35.7188Z" fill="black"/>
</svg>
