<svg width="45" height="45" viewBox="0 0 45 45" fill="none" xmlns="http://www.w3.org/2000/svg">
<circle cx="22.5" cy="22.5" r="22.5" fill="#C7FFBC"/>
<path d="M34.1413 13.0549L27.8885 13.8082C27.6814 13.8334 27.5935 14.0876 27.741 14.2351L29.6024 16.0965L22.5084 23.1906L19.3129 19.9983C19.1152 19.8005 18.7981 19.8036 18.6035 19.9983L8.50551 30.0994C8.45877 30.1466 8.43256 30.2103 8.43256 30.2767C8.43256 30.3432 8.45877 30.4069 8.50551 30.4541L9.91803 31.8729C10.0153 31.9702 10.1754 31.9702 10.2727 31.8729L18.9582 23.1906L22.1505 26.3829C22.3483 26.5775 22.6653 26.5775 22.8599 26.3829L31.379 17.87L33.2404 19.7314C33.2738 19.7646 33.3158 19.7878 33.3617 19.7983C33.4075 19.8088 33.4554 19.8062 33.4999 19.7909C33.5444 19.7755 33.5837 19.7479 33.6133 19.7114C33.6429 19.6748 33.6616 19.6306 33.6673 19.5839L34.4207 13.3311C34.4427 13.171 34.3045 13.0329 34.1413 13.0549Z" fill="black"/>
</svg>
