<svg width="45" height="45" viewBox="0 0 45 45" fill="none" xmlns="http://www.w3.org/2000/svg">
<rect width="45" height="45" fill="#F9FFF7"/>
<path d="M22.5 11.25C22.873 11.25 23.2306 11.3982 23.4944 11.6619C23.7581 11.9256 23.9062 12.2833 23.9062 12.6562V21.0938H32.3438C32.7167 21.0938 33.0744 21.2419 33.3381 21.5056C33.6018 21.7694 33.75 22.127 33.75 22.5C33.75 22.873 33.6018 23.2306 33.3381 23.4944C33.0744 23.7581 32.7167 23.9062 32.3438 23.9062H23.9062V32.3438C23.9062 32.7167 23.7581 33.0744 23.4944 33.3381C23.2306 33.6018 22.873 33.75 22.5 33.75C22.127 33.75 21.7694 33.6018 21.5056 33.3381C21.2419 33.0744 21.0938 32.7167 21.0938 32.3438V23.9062H12.6562C12.2833 23.9062 11.9256 23.7581 11.6619 23.4944C11.3982 23.2306 11.25 22.873 11.25 22.5C11.25 22.127 11.3982 21.7694 11.6619 21.5056C11.9256 21.2419 12.2833 21.0938 12.6562 21.0938H21.0938V12.6562C21.0938 12.2833 21.2419 11.9256 21.5056 11.6619C21.7694 11.3982 22.127 11.25 22.5 11.25Z" fill="black"/>
</svg>
