<svg width="50" height="50" viewBox="0 0 50 50" fill="none" xmlns="http://www.w3.org/2000/svg">
<circle cx="25" cy="25" r="25" fill="#FF817F"/>
<path d="M17.988 21.15C18.078 20.56 18.666 20 19.496 20C20.326 20 20.914 20.56 21.004 21.15C21.0193 21.2836 21.0613 21.4127 21.1276 21.5296C21.1939 21.6465 21.2831 21.7489 21.3898 21.8306C21.4966 21.9123 21.6187 21.9716 21.7489 22.005C21.8791 22.0384 22.0147 22.0453 22.1476 22.0251C22.2805 22.0049 22.408 21.9581 22.5224 21.8876C22.6368 21.817 22.7358 21.7241 22.8135 21.6144C22.8912 21.5047 22.946 21.3805 22.9746 21.2492C23.0032 21.1178 23.0051 20.9821 22.98 20.85C22.726 19.18 21.208 18 19.496 18C17.784 18 16.266 19.18 16.012 20.85C15.9869 20.9821 15.9888 21.1178 16.0174 21.2492C16.046 21.3805 16.1008 21.5047 16.1785 21.6144C16.2562 21.7241 16.3552 21.817 16.4696 21.8876C16.584 21.9581 16.7115 22.0049 16.8444 22.0251C16.9773 22.0453 17.1129 22.0384 17.2431 22.005C17.3733 21.9716 17.4954 21.9123 17.6022 21.8306C17.7089 21.7489 17.7981 21.6465 17.8644 21.5296C17.9307 21.4127 17.9727 21.2836 17.988 21.15ZM30.496 20C29.666 20 29.08 20.56 28.988 21.15C28.9398 21.4043 28.7948 21.63 28.5836 21.7796C28.3723 21.9292 28.1113 21.9911 27.8554 21.9523C27.5995 21.9134 27.3686 21.7768 27.2113 21.5713C27.0541 21.3657 26.9826 21.1072 27.012 20.85C27.266 19.18 28.784 18 30.496 18C32.208 18 33.726 19.18 33.98 20.85C34.0094 21.1072 33.9379 21.3657 33.7807 21.5713C33.6234 21.7768 33.3925 21.9134 33.1366 21.9523C32.8807 21.9911 32.6197 21.9292 32.4084 21.7796C32.1972 21.63 32.0522 21.4043 32.004 21.15C31.912 20.56 31.326 20 30.496 20V20ZM15.99 25C15.8505 25.0002 15.7126 25.0295 15.5851 25.0861C15.4577 25.1428 15.3435 25.2255 15.2498 25.3289C15.1562 25.4323 15.0853 25.5541 15.0416 25.6866C14.9979 25.819 14.9823 25.9592 14.996 26.098C15.472 30.984 19.308 35 24.99 35C30.672 35 34.51 30.984 34.986 26.098C34.9997 25.959 34.9841 25.8187 34.9403 25.6861C34.8964 25.5535 34.8253 25.4316 34.7315 25.3281C34.6377 25.2247 34.5232 25.1421 34.3955 25.0855C34.2678 25.029 34.1297 24.9999 33.99 25H15.99V25ZM24.99 33C20.828 33 17.958 30.394 17.166 27H32.816C32.022 30.394 29.154 33 24.99 33ZM25 9C20.7565 9 16.6869 10.6857 13.6863 13.6863C10.6857 16.6869 9 20.7565 9 25C9 29.2435 10.6857 33.3131 13.6863 36.3137C16.6869 39.3143 20.7565 41 25 41C29.2435 41 33.3131 39.3143 36.3137 36.3137C39.3143 33.3131 41 29.2435 41 25C41 20.7565 39.3143 16.6869 36.3137 13.6863C33.3131 10.6857 29.2435 9 25 9V9ZM11 25C11 23.1615 11.3621 21.341 12.0657 19.6424C12.7693 17.9439 13.8005 16.4005 15.1005 15.1005C16.4005 13.8005 17.9439 12.7693 19.6424 12.0657C21.341 11.3621 23.1615 11 25 11C26.8385 11 28.659 11.3621 30.3576 12.0657C32.0561 12.7693 33.5995 13.8005 34.8995 15.1005C36.1995 16.4005 37.2307 17.9439 37.9343 19.6424C38.6379 21.341 39 23.1615 39 25C39 28.713 37.525 32.274 34.8995 34.8995C32.274 37.525 28.713 39 25 39C21.287 39 17.726 37.525 15.1005 34.8995C12.475 32.274 11 28.713 11 25Z" fill="black"/>
</svg>
