<svg width="45" height="45" viewBox="0 0 45 45" fill="none" xmlns="http://www.w3.org/2000/svg">
<rect width="45" height="45" fill="#F9FFF7"/>
<path d="M40.4145 11.9453C40.4998 12.1508 40.5223 12.377 40.479 12.5952C40.4357 12.8135 40.3287 13.0141 40.1715 13.1715L35.6715 17.6715C35.5668 17.7759 35.4426 17.8587 35.3059 17.915C35.1693 17.9714 35.0228 18.0003 34.875 18H28.5907L25.5465 21.0443C25.8897 21.7627 25.9678 22.5793 25.7671 23.3497C25.5664 24.1202 25.0998 24.7949 24.4497 25.2545C23.7997 25.7142 23.008 25.9293 22.2147 25.8618C21.4214 25.7942 20.6776 25.4484 20.1146 24.8854C19.5516 24.3224 19.2058 23.5786 19.1383 22.7853C19.0707 21.992 19.2858 21.2003 19.7455 20.5503C20.2051 19.9002 20.8798 19.4336 21.6503 19.2329C22.4207 19.0322 23.2373 19.1104 23.9558 19.4535L27 16.4093V10.125C26.9997 9.97717 27.0286 9.83073 27.085 9.69406C27.1413 9.55739 27.2241 9.43318 27.3285 9.32851L31.8285 4.82851C31.9858 4.67077 32.1865 4.5633 32.405 4.51972C32.6235 4.47615 32.85 4.49843 33.0558 4.58374C33.2616 4.66906 33.4375 4.81356 33.561 4.99894C33.6846 5.18431 33.7504 5.40221 33.75 5.62501V11.25H39.375C39.5976 11.25 39.8152 11.3161 40.0003 11.4399C40.1853 11.5636 40.3295 11.7395 40.4145 11.9453ZM36.6592 13.5H32.625C32.3266 13.5 32.0405 13.3815 31.8295 13.1705C31.6185 12.9595 31.5 12.6734 31.5 12.375V8.34076L29.25 10.5908V15.75H34.4093L36.6592 13.5ZM39.6157 16.9088C40.1895 18.6683 40.5 20.5493 40.5 22.5C40.4992 26.3024 39.2943 30.0068 37.0581 33.0821C34.8218 36.1574 31.6692 38.4455 28.0523 39.6184C24.4353 40.7912 20.5399 40.7886 16.9245 39.6108C13.3092 38.433 10.1596 36.1406 7.9276 33.0623C5.69557 29.984 4.49568 26.278 4.50001 22.4756C4.50434 18.6732 5.71266 14.9699 7.9517 11.8967C10.1907 8.82349 13.3455 6.53826 16.9635 5.36871C20.5815 4.19917 24.477 4.2054 28.0912 5.38651L26.2733 7.20451C22.9333 6.38099 19.4156 6.67358 16.2577 8.03757C13.0997 9.40155 10.4751 11.7619 8.78495 14.758C7.09478 17.7541 6.43199 21.2212 6.89784 24.6294C7.36368 28.0377 8.93255 31.1997 11.3647 33.6324C13.7969 36.065 16.9586 37.6345 20.3668 38.101C23.775 38.5675 27.2421 37.9054 30.2386 36.2158C33.235 34.5263 35.5959 31.9021 36.9605 28.7444C38.3251 25.5867 38.6184 22.0691 37.7955 18.729L39.6157 16.9088ZM33.525 20.25C34.0082 22.6194 33.7151 25.0814 32.6892 27.2712C31.6632 29.4609 29.959 31.2618 27.8291 32.4069C25.6992 33.5519 23.2571 33.9803 20.8646 33.6283C18.4722 33.2764 16.2569 32.163 14.547 30.4531C12.837 28.7431 11.7236 26.5278 11.3717 24.1354C11.0198 21.7429 11.4481 19.3008 12.5931 17.1709C13.7382 15.041 15.5391 13.3368 17.7288 12.3108C19.9186 11.2849 22.3806 10.9918 24.75 11.475V13.7835C22.8386 13.2904 20.818 13.4394 18.9996 14.2076C17.1812 14.9757 15.6657 16.3205 14.6867 18.0346C13.7077 19.7487 13.3194 21.7372 13.5816 23.6937C13.8438 25.6503 14.742 27.4663 16.1379 28.8622C17.5337 30.258 19.3497 31.1562 21.3063 31.4184C23.2628 31.6807 25.2513 31.2923 26.9654 30.3133C28.6796 29.3343 30.0243 27.8189 30.7924 26.0004C31.5606 24.182 31.7096 22.1614 31.2165 20.25H33.525Z" fill="black"/>
</svg>
