<svg width="25" height="25" viewBox="0 0 25 25" fill="none" xmlns="http://www.w3.org/2000/svg">
<circle cx="12.5" cy="12.5" r="12.5" fill="#C7FFBC"/>
<path d="M20.8057 6.32921L16.7205 6.82139C16.5852 6.8378 16.5277 7.00391 16.6241 7.1003L17.8402 8.31641L13.2055 12.9512L11.1178 10.8655C10.9886 10.7363 10.7814 10.7384 10.6543 10.8655L4.05694 17.4649C4.02641 17.4958 4.00928 17.5374 4.00928 17.5808C4.00928 17.6242 4.02641 17.6659 4.05694 17.6967L4.97979 18.6236C5.04336 18.6872 5.14795 18.6872 5.21153 18.6236L10.886 12.9512L12.9717 15.0368C13.1009 15.164 13.308 15.164 13.4352 15.0368L19.001 9.4751L20.2171 10.6912C20.2389 10.7129 20.2663 10.728 20.2963 10.7349C20.3263 10.7418 20.3576 10.7401 20.3866 10.73C20.4157 10.72 20.4413 10.702 20.4607 10.6781C20.48 10.6542 20.4922 10.6253 20.496 10.5948L20.9882 6.50967C21.0025 6.40508 20.9123 6.31485 20.8057 6.32921V6.32921Z" fill="black"/>
</svg>
