<svg width="25" height="25" viewBox="0 0 25 25" fill="none" xmlns="http://www.w3.org/2000/svg">
<circle cx="12.5" cy="12.5" r="12.5" fill="#FF817F"/>
<path d="M4.19433 18.6708L8.27949 18.1786C8.41484 18.1622 8.47226 17.9961 8.37588 17.8997L7.15976 16.6836L11.7945 12.0488L13.8822 14.1345C14.0114 14.2637 14.2186 14.2616 14.3457 14.1345L20.9431 7.53505C20.9736 7.50422 20.9907 7.46258 20.9907 7.41918C20.9907 7.37579 20.9736 7.33415 20.9431 7.30331L20.0202 6.37636C19.9566 6.31279 19.852 6.31279 19.7885 6.37636L14.114 12.0488L12.0283 9.96318C11.8991 9.83603 11.692 9.83603 11.5648 9.96318L5.99902 15.5249L4.78291 14.3088C4.76111 14.2871 4.73367 14.272 4.7037 14.2651C4.67373 14.2582 4.64244 14.2599 4.61338 14.27C4.58433 14.28 4.55867 14.298 4.53933 14.3219C4.52 14.3458 4.50775 14.3747 4.504 14.4052L4.01181 18.4903C3.99746 18.5949 4.08769 18.6851 4.19433 18.6708V18.6708Z" fill="black"/>
</svg>
