<svg width="35" height="35" viewBox="0 0 35 35" fill="none" xmlns="http://www.w3.org/2000/svg">
<g clip-path="url(#clip0_28_6570)">
<path d="M31.3542 5.83337H28.1945V7.77782H31.1111V29.1667H3.88891V7.77782H6.80557V5.83337H3.64585C3.41858 5.83717 3.19429 5.88571 2.98578 5.9762C2.77727 6.0667 2.58863 6.19738 2.43063 6.3608C2.27264 6.52421 2.14838 6.71714 2.06497 6.92858C1.98155 7.14002 1.9406 7.36583 1.94446 7.5931V29.3514C1.9406 29.5787 1.98155 29.8045 2.06497 30.0159C2.14838 30.2274 2.27264 30.4203 2.43063 30.5837C2.58863 30.7471 2.77727 30.8778 2.98578 30.9683C3.19429 31.0588 3.41858 31.1074 3.64585 31.1112H31.3542C31.5815 31.1074 31.8058 31.0588 32.0143 30.9683C32.2228 30.8778 32.4114 30.7471 32.5694 30.5837C32.7274 30.4203 32.8517 30.2274 32.9351 30.0159C33.0185 29.8045 33.0594 29.5787 33.0556 29.3514V7.5931C33.0594 7.36583 33.0185 7.14002 32.9351 6.92858C32.8517 6.71714 32.7274 6.52421 32.5694 6.3608C32.4114 6.19738 32.2228 6.0667 32.0143 5.9762C31.8058 5.88571 31.5815 5.83717 31.3542 5.83337Z" fill="black"/>
<path d="M7.77777 13.6111H9.72222V15.5555H7.77777V13.6111Z" fill="black"/>
<path d="M13.6111 13.6111H15.5555V15.5555H13.6111V13.6111Z" fill="black"/>
<path d="M19.4445 13.6111H21.3889V15.5555H19.4445V13.6111Z" fill="black"/>
<path d="M25.2778 13.6111H27.2222V15.5555H25.2778V13.6111Z" fill="black"/>
<path d="M7.77777 18.4722H9.72222V20.4166H7.77777V18.4722Z" fill="black"/>
<path d="M13.6111 18.4722H15.5555V20.4166H13.6111V18.4722Z" fill="black"/>
<path d="M19.4445 18.4722H21.3889V20.4166H19.4445V18.4722Z" fill="black"/>
<path d="M25.2778 18.4722H27.2222V20.4166H25.2778V18.4722Z" fill="black"/>
<path d="M7.77777 23.3334H9.72222V25.2778H7.77777V23.3334Z" fill="black"/>
<path d="M13.6111 23.3334H15.5555V25.2778H13.6111V23.3334Z" fill="black"/>
<path d="M19.4445 23.3334H21.3889V25.2778H19.4445V23.3334Z" fill="black"/>
<path d="M25.2778 23.3334H27.2222V25.2778H25.2778V23.3334Z" fill="black"/>
<path d="M9.72222 9.72224C9.98007 9.72224 10.2274 9.61981 10.4097 9.43748C10.592 9.25515 10.6944 9.00786 10.6944 8.75001V2.91668C10.6944 2.65883 10.592 2.41154 10.4097 2.22922C10.2274 2.04689 9.98007 1.94446 9.72222 1.94446C9.46437 1.94446 9.21708 2.04689 9.03476 2.22922C8.85243 2.41154 8.75 2.65883 8.75 2.91668V8.75001C8.75 9.00786 8.85243 9.25515 9.03476 9.43748C9.21708 9.61981 9.46437 9.72224 9.72222 9.72224Z" fill="black"/>
<path d="M25.2778 9.72224C25.5356 9.72224 25.7829 9.61981 25.9652 9.43748C26.1476 9.25515 26.25 9.00786 26.25 8.75001V2.91668C26.25 2.65883 26.1476 2.41154 25.9652 2.22922C25.7829 2.04689 25.5356 1.94446 25.2778 1.94446C25.0199 1.94446 24.7726 2.04689 24.5903 2.22922C24.408 2.41154 24.3055 2.65883 24.3055 2.91668V8.75001C24.3055 9.00786 24.408 9.25515 24.5903 9.43748C24.7726 9.61981 25.0199 9.72224 25.2778 9.72224Z" fill="black"/>
<path d="M12.6389 5.83337H22.3611V7.77782H12.6389V5.83337Z" fill="black"/>
</g>
<defs>
<clipPath id="clip0_28_6570">
<rect width="35" height="35" fill="white"/>
</clipPath>
</defs>
</svg>
