<svg width="25" height="25" viewBox="0 0 25 25" fill="none" xmlns="http://www.w3.org/2000/svg">
<g clip-path="url(#clip0_8_106)">
<path d="M22.3959 4.16669H20.1389V5.55558H22.2222V20.8334H2.7778V5.55558H4.86113V4.16669H2.60419C2.44185 4.1694 2.28164 4.20407 2.13271 4.26871C1.98377 4.33335 1.84903 4.42669 1.73618 4.54342C1.62332 4.66014 1.53457 4.79795 1.47498 4.94898C1.4154 5.10001 1.38615 5.2613 1.38891 5.42363V20.9653C1.38615 21.1276 1.4154 21.2889 1.47498 21.4399C1.53457 21.591 1.62332 21.7288 1.73618 21.8455C1.84903 21.9622 1.98377 22.0556 2.13271 22.1202C2.28164 22.1849 2.44185 22.2195 2.60419 22.2222H22.3959C22.5582 22.2195 22.7184 22.1849 22.8673 22.1202C23.0163 22.0556 23.151 21.9622 23.2639 21.8455C23.3767 21.7288 23.4655 21.591 23.5251 21.4399C23.5846 21.2889 23.6139 21.1276 23.6111 20.9653V5.42363C23.6139 5.2613 23.5846 5.10001 23.5251 4.94898C23.4655 4.79795 23.3767 4.66014 23.2639 4.54342C23.151 4.42669 23.0163 4.33335 22.8673 4.26871C22.7184 4.20407 22.5582 4.1694 22.3959 4.16669Z" fill="#8B928A"/>
<path d="M5.55554 9.72223H6.94443V11.1111H5.55554V9.72223Z" fill="#8B928A"/>
<path d="M9.72223 9.72223H11.1111V11.1111H9.72223V9.72223Z" fill="#8B928A"/>
<path d="M13.8889 9.72223H15.2778V11.1111H13.8889V9.72223Z" fill="#8B928A"/>
<path d="M18.0555 9.72223H19.4444V11.1111H18.0555V9.72223Z" fill="#8B928A"/>
<path d="M5.55554 13.1945H6.94443V14.5833H5.55554V13.1945Z" fill="#8B928A"/>
<path d="M9.72223 13.1945H11.1111V14.5833H9.72223V13.1945Z" fill="#8B928A"/>
<path d="M14 13H15.3889V14.3889H14V13Z" fill="#8B928A"/>
<path d="M18.0555 13.1945H19.4444V14.5833H18.0555V13.1945Z" fill="#8B928A"/>
<path d="M5.55554 16.6667H6.94443V18.0556H5.55554V16.6667Z" fill="#8B928A"/>
<path d="M9.72223 16.6667H11.1111V18.0556H9.72223V16.6667Z" fill="#8B928A"/>
<path d="M13.8889 16.6667H15.2778V18.0556H13.8889V16.6667Z" fill="#8B928A"/>
<path d="M18.0555 16.6667H19.4444V18.0556H18.0555V16.6667Z" fill="#8B928A"/>
<path d="M6.94444 6.94447C7.12862 6.94447 7.30526 6.87131 7.43549 6.74107C7.56572 6.61084 7.63889 6.43421 7.63889 6.25003V2.08336C7.63889 1.89918 7.56572 1.72255 7.43549 1.59231C7.30526 1.46208 7.12862 1.38892 6.94444 1.38892C6.76027 1.38892 6.58363 1.46208 6.4534 1.59231C6.32316 1.72255 6.25 1.89918 6.25 2.08336V6.25003C6.25 6.43421 6.32316 6.61084 6.4534 6.74107C6.58363 6.87131 6.76027 6.94447 6.94444 6.94447Z" fill="#8B928A"/>
<path d="M18.0555 6.94447C18.2397 6.94447 18.4163 6.87131 18.5466 6.74107C18.6768 6.61084 18.75 6.43421 18.75 6.25003V2.08336C18.75 1.89918 18.6768 1.72255 18.5466 1.59231C18.4163 1.46208 18.2397 1.38892 18.0555 1.38892C17.8714 1.38892 17.6947 1.46208 17.5645 1.59231C17.4342 1.72255 17.3611 1.89918 17.3611 2.08336V6.25003C17.3611 6.43421 17.4342 6.61084 17.5645 6.74107C17.6947 6.87131 17.8714 6.94447 18.0555 6.94447Z" fill="#8B928A"/>
<path d="M9.02777 4.16669H15.9722V5.55558H9.02777V4.16669Z" fill="#8B928A"/>
</g>
<defs>
<clipPath id="clip0_8_106">
<rect width="25" height="25" fill="white"/>
</clipPath>
</defs>
</svg>
