<svg width="25" height="21" viewBox="0 0 25 21" fill="none" xmlns="http://www.w3.org/2000/svg">
<g clip-path="url(#clip0_28_6759)">
<path d="M22.5825 1.73346C22.3618 1.54384 22.0625 1.43732 21.7504 1.43732C21.4383 1.43732 21.139 1.54384 20.9183 1.73346L2.52651 17.5417C2.41411 17.635 2.32445 17.7466 2.26276 17.87C2.20108 17.9934 2.16862 18.1261 2.16726 18.2604C2.1659 18.3947 2.19568 18.5279 2.25485 18.6522C2.31403 18.7765 2.40142 18.8895 2.51193 18.9844C2.62243 19.0794 2.75384 19.1545 2.89848 19.2054C3.04312 19.2562 3.19809 19.2818 3.35436 19.2807C3.51063 19.2795 3.66507 19.2516 3.80866 19.1986C3.95225 19.1456 4.08212 19.0685 4.19068 18.9719L22.5813 3.16368C22.8019 2.974 22.9259 2.71677 22.9259 2.44857C22.9259 2.18036 22.8019 1.92314 22.5813 1.73346H22.5825ZM4.44254 13.8913L7.45547 11.3019C7.36956 10.991 7.32494 10.6727 7.32248 10.3532C7.32248 7.94691 9.66455 5.99478 12.5539 5.99478C12.8905 5.99478 13.2177 6.02714 13.5366 6.07772L14.9525 4.86193C14.1597 4.74905 13.3575 4.69155 12.5539 4.68998C4.83328 4.68897 0.784668 9.57537 0.784668 10.3532C0.784668 10.781 2.02868 12.4672 4.44254 13.8903V13.8913ZM20.6688 6.81811L17.6535 9.40747C17.7347 9.71293 17.7841 10.0275 17.7841 10.3532C17.7841 12.7595 15.4432 14.7096 12.5539 14.7096C12.2197 14.7096 11.8948 14.6772 11.5782 14.6277L10.1612 15.8444C10.9168 15.9496 11.71 16.0164 12.5539 16.0164C20.2745 16.0164 24.3231 11.128 24.3231 10.3532C24.3231 9.92433 23.0803 8.23922 20.6688 6.81811Z" fill="#8B928A"/>
</g>
<defs>
<clipPath id="clip0_28_6759">
<rect width="23.5385" height="20.2294" fill="white" transform="translate(0.784668 0.238525)"/>
</clipPath>
</defs>
</svg>
