<svg width="24" height="21" viewBox="0 0 24 21" fill="none" xmlns="http://www.w3.org/2000/svg">
<g clip-path="url(#clip0_802_302)">
<path d="M11.75 4.51001C4.04082 4.51001 0 9.46281 0 10.25C0 11.0352 4.04082 15.99 11.75 15.99C19.458 15.99 23.5 11.0352 23.5 10.25C23.5 9.46281 19.458 4.51001 11.75 4.51001ZM11.75 14.6647C8.86537 14.6647 6.52712 12.6885 6.52712 10.25C6.52712 7.81153 8.86537 5.83328 11.75 5.83328C14.6346 5.83328 16.9717 7.81153 16.9717 10.25C16.9717 12.6885 14.6346 14.6647 11.75 14.6647ZM11.75 10.25C11.2718 9.79183 12.529 8.04216 11.75 8.04216C10.3071 8.04216 9.13797 9.03128 9.13797 10.25C9.13797 11.4687 10.3071 12.4579 11.75 12.4579C13.1917 12.4579 14.362 11.4687 14.362 10.25C14.362 9.68933 12.1565 10.6385 11.75 10.25Z" fill="#8B928A"/>
</g>
<defs>
<clipPath id="clip0_802_302">
<rect width="23.5" height="20.5" fill="white"/>
</clipPath>
</defs>
</svg>
