<svg width="45" height="45" viewBox="0 0 45 45" fill="none" xmlns="http://www.w3.org/2000/svg">
<g clip-path="url(#clip0_28_6444)">
<rect width="45" height="45" fill="#F9FFF7"/>
<path d="M42.1375 21.6125L23.3875 2.8625C23.1533 2.62969 22.8365 2.49901 22.5063 2.49901C22.1761 2.49901 21.8592 2.62969 21.625 2.8625L2.87503 21.6125C2.67025 21.8516 2.56324 22.1592 2.5754 22.4738C2.58755 22.7884 2.71796 23.0868 2.94058 23.3095C3.1632 23.5321 3.46162 23.6625 3.77622 23.6746C4.09081 23.6868 4.39841 23.5798 4.63753 23.375L22.5 5.5125L40.3625 23.3875C40.6017 23.5923 40.9093 23.6993 41.2239 23.6871C41.5384 23.675 41.8369 23.5446 42.0595 23.322C42.2821 23.0993 42.4125 22.8009 42.4247 22.4863C42.4368 22.1717 42.3298 21.8641 42.125 21.625L42.1375 21.6125Z" fill="black"/>
<path d="M35 40H28.75V27.5H16.25V40H10V22.5L7.5 25V40C7.5 40.663 7.76339 41.2989 8.23223 41.7678C8.70107 42.2366 9.33696 42.5 10 42.5H18.75V30H26.25V42.5H35C35.663 42.5 36.2989 42.2366 36.7678 41.7678C37.2366 41.2989 37.5 40.663 37.5 40V24.7L35 22.2V40Z" fill="black"/>
</g>
<defs>
<clipPath id="clip0_28_6444">
<rect width="45" height="45" fill="white"/>
</clipPath>
</defs>
</svg>
