<svg width="35" height="35" viewBox="0 0 35 35" fill="none" xmlns="http://www.w3.org/2000/svg">
<path d="M22.349 23.7344C22.0816 23.4184 21.9479 23.0597 21.9479 22.6581C21.9479 22.2576 22.0816 21.9236 22.349 21.6563L25.0469 18.9583H14.5833C14.1701 18.9583 13.824 18.8183 13.545 18.5383C13.265 18.2593 13.125 17.9132 13.125 17.5C13.125 17.0868 13.265 16.7402 13.545 16.4602C13.824 16.1812 14.1701 16.0417 14.5833 16.0417H25.0469L22.349 13.3438C22.0573 13.0521 21.9115 12.706 21.9115 12.3054C21.9115 11.9039 22.0573 11.5573 22.349 11.2656C22.6163 10.974 22.9508 10.8281 23.3523 10.8281C23.7528 10.8281 24.0868 10.9618 24.3542 11.2292L29.6042 16.4792C29.75 16.625 29.8535 16.783 29.9148 16.9531C29.9751 17.1233 30.0052 17.3056 30.0052 17.5C30.0052 17.6944 29.9751 17.8767 29.9148 18.0469C29.8535 18.217 29.75 18.375 29.6042 18.5208L24.3542 23.7708C24.0382 24.0868 23.6921 24.2263 23.3158 24.1894C22.9386 24.1534 22.6163 24.0017 22.349 23.7344ZM7.29167 30.625C6.48958 30.625 5.80271 30.3397 5.23104 29.769C4.66035 29.1973 4.375 28.5104 4.375 27.7083V7.29167C4.375 6.48958 4.66035 5.80271 5.23104 5.23104C5.80271 4.66035 6.48958 4.375 7.29167 4.375H16.0417C16.4549 4.375 16.8015 4.51451 17.0815 4.79354C17.3605 5.07354 17.5 5.42014 17.5 5.83333C17.5 6.24653 17.3605 6.59264 17.0815 6.87167C16.8015 7.15167 16.4549 7.29167 16.0417 7.29167H7.29167V27.7083H16.0417C16.4549 27.7083 16.8015 27.8483 17.0815 28.1283C17.3605 28.4074 17.5 28.7535 17.5 29.1667C17.5 29.5799 17.3605 29.926 17.0815 30.205C16.8015 30.485 16.4549 30.625 16.0417 30.625H7.29167Z" fill="black"/>
</svg>
