<?xml version="1.0" encoding="utf-8"?>
<!-- Svg Vector Icons : http://www.onlinewebfonts.com/icon -->
<!DOCTYPE svg PUBLIC "-//W3C//DTD SVG 1.1//EN" "http://www.w3.org/Graphics/SVG/1.1/DTD/svg11.dtd">
<svg version="1.1" xmlns="http://www.w3.org/2000/svg" xmlns:xlink="http://www.w3.org/1999/xlink" x="0px" y="0px" viewBox="0 0 1000 1000" enable-background="new 0 0 1000 1000" xml:space="preserve">
<metadata> Svg Vector Icons : http://www.onlinewebfonts.com/icon </metadata>
<g><g transform="translate(0.000000,511.000000) scale(0.100000,-0.100000)"><path d="M1469.6,4962.5l-49.4-49.4V109c0-4701.2,0-4806.1,37.6-4851.5l37.6-47.5H5000h3504.7l37.6,47.5c37.6,45.5,37.6,134.5,37.6,3925.9c0,3075.5-5.9,3886.4-23.8,3912.1c-13.8,15.8-567.6,452.9-1232.2,967.1l-1206.5,937.5l-2300.2,5.9l-2300.2,4L1469.6,4962.5z M5909.8,3645.3V2595.1l49.5-47.5c25.7-27.7,67.2-49.4,92.9-49.4s530,71.2,1123.4,156.2c593.3,85.1,1083.8,150.3,1093.7,146.4c7.9-4,13.8-1645.5,13.8-3647.1v-3637.2H5000H1716.8V105.1v4588.5h2096.5h2096.5V3645.3z M7149.9,3803.5c862.3-670.5,899.9-702.1,844.5-716c-31.7-7.9-439.1-69.2-905.9-136.5c-684.3-96.9-852.4-114.7-864.3-93c-23.7,37.6-21.8,1661.4,2,1653.4C6236.1,4509.6,6651.5,4189.2,7149.9,3803.5z"/><path d="M3585.9,989.1c-100.9-39.6-158.2-89-207.7-176c-96.9-172.1-47.5-385.7,116.7-500.4c73.2-51.4,100.9-59.3,217.6-59.3c108.8,0,146.4,7.9,203.7,47.5c191.8,132.5,235.4,403.5,89,569.6C3894.4,997,3728.3,1044.5,3585.9,989.1z"/><path d="M6196.6,977.3c-278.9-126.6-308.5-500.4-53.4-676.4c57.4-37.6,94.9-47.5,203.7-47.5c116.7,0,144.4,7.9,217.6,59.3c261.1,183.9,203.7,573.6-98.9,678.4C6370.6,1024.7,6289.5,1020.8,6196.6,977.3z"/><path d="M4691.5-812.7c-743.7-142.4-1317.2-623-1570.4-1311.3c-100.9-276.9-152.3-678.4-98.9-775.3c27.7-55.4,120.6-87,183.9-63.3c69.2,27.7,85,65.3,100.9,239.3c43.5,478.6,217.6,842.5,551.8,1161c183.9,174,389.6,296.7,642.8,383.7c187.9,65.3,197.8,67.2,528.1,67.2c330.3,0,340.2-2,528.1-67.2c253.1-87,458.8-209.6,642.8-383.7c334.2-318.4,508.3-682.3,549.8-1161c15.8-166.1,43.5-227.4,118.7-245.3c69.2-17.8,164.2,35.6,180,98.9c7.9,29.7,7.9,128.6,2,223.5c-47.5,708-524.1,1382.5-1190.6,1683.1C5530-812.7,5027.7-749.4,4691.5-812.7z"/></g></g>
</svg>