<svg width="50" height="50" viewBox="0 0 50 50" fill="none" xmlns="http://www.w3.org/2000/svg">
<circle cx="25" cy="25" r="25" fill="#FF817F"/>
<g clip-path="url(#clip0_182_303)">
<path d="M36.498 11.9086L36.8015 11.6137C37.03 11.3919 37.3012 11.2159 37.5997 11.0959C37.8981 10.9759 38.218 10.9142 38.541 10.9143C38.864 10.9144 39.1839 10.9763 39.4822 11.0965C39.7806 11.2166 40.0517 11.3927 40.2801 11.6147C40.5084 11.8366 40.6895 12.1001 40.813 12.39C40.9366 12.68 41.0001 12.9907 41 13.3045C40.9999 13.6183 40.9362 13.929 40.8125 14.2189C40.6888 14.5088 40.5075 14.7721 40.2791 14.9939L39.9755 15.2868C40.4948 15.8526 40.7716 16.5899 40.7493 17.3475C40.7269 18.1052 40.4071 18.8258 39.8553 19.3618L18.8883 39.7324C18.7572 39.859 18.5931 39.9487 18.4136 39.9916L10.2647 41.9707C10.0942 42.012 9.91559 42.0096 9.74625 41.964C9.57691 41.9183 9.42261 41.8309 9.29834 41.7102C9.17408 41.5895 9.08408 41.4396 9.03709 41.2751C8.9901 41.1106 8.98772 40.937 9.03018 40.7714L11.0674 32.8551C11.112 32.6814 11.2042 32.5227 11.3343 32.3959L30.9771 13.3137C30.7807 13.1794 30.5417 13.1168 30.3023 13.1371C30.063 13.1574 29.8388 13.2592 29.6692 13.4245L22.9627 19.9416C22.868 20.0336 22.7556 20.1066 22.6318 20.1564C22.5081 20.2062 22.3755 20.2318 22.2415 20.2318C22.1076 20.2318 21.975 20.2062 21.8512 20.1564C21.7275 20.1066 21.6151 20.0336 21.5204 19.9416C21.4257 19.8496 21.3505 19.7404 21.2993 19.6202C21.248 19.5 21.2216 19.3711 21.2216 19.241C21.2216 19.1109 21.248 18.9821 21.2993 18.8619C21.3505 18.7417 21.4257 18.6324 21.5204 18.5404L28.231 12.0253C28.783 11.489 29.5254 11.1783 30.3058 11.157C31.0862 11.1356 31.8454 11.4053 32.4276 11.9105C32.9874 11.4246 33.7117 11.1557 34.4624 11.1554C35.2131 11.155 35.9377 11.4231 36.498 11.9086ZM35.186 13.4245C34.995 13.239 34.736 13.1348 34.4659 13.1348C34.1958 13.1348 33.9367 13.239 33.7457 13.4245L12.9722 33.6012L11.4158 39.6512L17.6435 38.1392L38.417 17.9626C38.5119 17.8706 38.5872 17.7614 38.6385 17.6412C38.6899 17.521 38.7163 17.3921 38.7163 17.262C38.7163 17.1318 38.6899 17.0029 38.6385 16.8827C38.5872 16.7625 38.5119 16.6533 38.417 16.5614L35.1881 13.4245H35.186Z" fill="black"/>
</g>
<defs>
<clipPath id="clip0_182_303">
<rect width="32" height="32" fill="white" transform="translate(9 10)"/>
</clipPath>
</defs>
</svg>
