<svg width="55" height="55" viewBox="0 0 55 55" fill="none" xmlns="http://www.w3.org/2000/svg">
<g clip-path="url(#clip0_135_307)">
<path d="M30.1277 15.9958C26.9026 15.3656 23.5659 15.6406 20.4875 16.7903C20.338 16.8495 20.2017 16.9375 20.0862 17.0494C19.9708 17.1613 19.8785 17.2948 19.8147 17.4423C19.6857 17.7403 19.6804 18.0773 19.8 18.3792C19.9195 18.681 20.1541 18.9231 20.452 19.052C20.75 19.1809 21.087 19.1862 21.3889 19.0667C24.0395 18.0644 26.9148 17.8107 29.7 18.3333C29.8632 18.3763 30.0336 18.385 30.2004 18.3588C30.3672 18.3327 30.5268 18.2722 30.669 18.1814C30.8113 18.0905 30.9332 17.9711 31.027 17.8307C31.1209 17.6904 31.1846 17.5322 31.2143 17.3659C31.2439 17.1997 31.2388 17.0292 31.1993 16.8651C31.1597 16.701 31.0866 16.5468 30.9845 16.4123C30.8824 16.2779 30.7536 16.166 30.6062 16.0838C30.4587 16.0016 30.2958 15.9508 30.1277 15.9347V15.9958Z" fill="white"/>
<path d="M38.775 27.6069C39.9225 27.6069 40.8528 26.6767 40.8528 25.5292C40.8528 24.3816 39.9225 23.4514 38.775 23.4514C37.6275 23.4514 36.6972 24.3816 36.6972 25.5292C36.6972 26.6767 37.6275 27.6069 38.775 27.6069Z" fill="white"/>
<path d="M54.2514 28.4625C54.1098 28.253 53.9185 28.0819 53.6945 27.9646C53.4705 27.8473 53.2209 27.7874 52.9681 27.7903C51.7337 27.6189 50.6013 27.0121 49.775 26.0792C48.185 24.3412 46.8338 22.3991 45.757 20.3042L50.157 13.4292C50.424 13.0308 50.5875 12.5721 50.6329 12.0947C50.6782 11.6172 50.6039 11.136 50.4167 10.6944C50.2292 10.2927 49.9458 9.9433 49.5915 9.67689C49.2371 9.41047 48.8227 9.23526 48.3848 9.16667C45.5867 8.78958 42.7388 9.18585 40.15 10.3125C38.6664 10.966 37.2704 11.8026 35.9945 12.8028C33.4956 11.6823 30.8347 10.9655 28.1111 10.6792C17.2792 9.625 7.37919 16.6528 6.11114 25.9722C5.61696 25.7499 5.17436 25.4273 4.81143 25.0249C4.44849 24.6226 4.17313 24.1491 4.00281 23.6347C3.89387 23.282 3.85668 22.911 3.89342 22.5436C3.93015 22.1763 4.04007 21.82 4.21669 21.4958C4.37508 21.2237 4.60146 20.9973 4.87364 20.8389C5.05922 20.7265 5.22086 20.5787 5.34932 20.4039C5.47778 20.2291 5.57055 20.0307 5.62233 19.82C5.67411 19.6093 5.68389 19.3905 5.65111 19.1761C5.61833 18.9616 5.54363 18.7557 5.43128 18.5701C5.31892 18.3846 5.17112 18.2229 4.9963 18.0945C4.82148 17.966 4.62307 17.8732 4.41239 17.8214C4.20172 17.7697 3.98291 17.7599 3.76846 17.7927C3.55401 17.8254 3.34811 17.9001 3.16253 18.0125C2.42296 18.4664 1.81265 19.1031 1.39031 19.8611C0.99764 20.5725 0.750802 21.3551 0.664233 22.1631C0.577665 22.9711 0.653105 23.7882 0.886139 24.5667C1.17298 25.51 1.64865 26.3851 2.28423 27.1389C2.91981 27.8927 3.70204 28.5093 4.58336 28.9514L5.98892 29.6542C6.16451 33.3732 7.1114 37.0151 8.76947 40.3486L9.02919 40.9292C10.3543 43.7317 12.0444 46.3465 14.0556 48.7056C14.1988 48.8685 14.375 48.9991 14.5726 49.0887C14.7701 49.1783 14.9845 49.2247 15.2014 49.225H22.107C22.3572 49.2238 22.6033 49.1611 22.8236 49.0424C23.0439 48.9238 23.2317 48.7529 23.3705 48.5447C23.5094 48.3365 23.5949 48.0974 23.6196 47.8484C23.6444 47.5994 23.6076 47.3481 23.5125 47.1167L22.9167 45.7417L24.7195 45.9403C26.7516 46.1412 28.7985 46.1412 30.8306 45.9403C31.3959 46.8569 32.007 47.7736 32.6792 48.675C32.8199 48.8676 33.0037 49.0245 33.216 49.1333C33.4282 49.242 33.6629 49.2996 33.9014 49.3014H40.532C40.7841 49.3012 41.0323 49.2386 41.2544 49.1191C41.4765 48.9997 41.6656 48.8271 41.8047 48.6168C41.9439 48.4066 42.0289 48.1651 42.052 47.914C42.0752 47.6629 42.0359 47.41 41.9375 47.1778C41.6778 46.5667 41.4181 45.9097 41.2195 45.3444C40.9445 44.5347 40.7306 43.8167 40.5625 43.1292C42.2498 42.2183 43.7983 41.071 45.1611 39.7222C46.6834 39.9062 48.2222 39.9062 49.7445 39.7222C50.0086 39.6823 50.2576 39.5738 50.4667 39.4076C50.6758 39.2414 50.8376 39.0233 50.9361 38.775L54.3889 29.8986C54.4861 29.6664 54.5243 29.4138 54.5004 29.1633C54.4764 28.9128 54.3909 28.672 54.2514 28.4625V28.4625ZM48.4764 36.7736C47.2771 36.8419 46.0739 36.7856 44.8861 36.6056C43.5336 36.3771 42.2278 35.9281 41.0209 35.2764C40.6634 35.0991 40.2508 35.0688 39.8712 35.1918C39.4917 35.3147 39.1753 35.5813 38.9897 35.9345C38.8041 36.2877 38.7641 36.6995 38.8781 37.0819C38.9922 37.4642 39.2513 37.7867 39.6 37.9806C40.2385 38.3153 40.8967 38.6112 41.5709 38.8667C40.7378 39.578 39.8128 40.1741 38.8209 40.6389L37.2014 41.3722C37.2014 41.3722 37.95 44.7181 38.4542 46.2H34.8181C34.4514 45.6806 32.6028 42.5944 32.6028 42.5944L31.5792 42.7319C29.429 43.042 27.2504 43.1035 25.0861 42.9153C24.0778 42.8236 22.3973 42.6097 21.0834 42.3806L18.7153 41.9681C18.7153 41.9681 19.6778 45.6806 19.8611 46.1542H15.9195C14.3094 44.1827 12.9447 42.0229 11.8556 39.7222L11.5806 39.1264C9.59554 35.3053 8.75727 30.992 9.16669 26.7056C9.99169 18.7764 18.5167 12.7875 27.7903 13.6583C30.488 13.9607 33.1134 14.7256 35.5514 15.9194L36.4986 16.3625L37.2625 15.6444C38.4522 14.5814 39.7968 13.7056 41.25 13.0472C43.1728 12.2133 45.2732 11.8719 47.3611 12.0542L42.1973 20.1361L42.5792 20.9C43.9135 23.5876 45.6155 26.0763 47.6361 28.2944C48.5747 29.2117 49.686 29.9335 50.9056 30.4181L48.4764 36.7736Z" fill="white"/>
</g>
<defs>
<clipPath id="clip0_135_307">
<rect width="55" height="55" fill="white"/>
</clipPath>
</defs>
</svg>
