<svg width="30" height="30" viewBox="0 0 30 30" fill="none" xmlns="http://www.w3.org/2000/svg">
<path d="M24.5833 10.4167H10.4167C10.3062 10.4167 10.2002 10.3728 10.122 10.2946C10.0439 10.2165 10 10.1105 10 10V7.91667C10 7.80616 10.0439 7.70018 10.122 7.62204C10.2002 7.5439 10.3062 7.5 10.4167 7.5H24.5833C24.6938 7.5 24.7998 7.5439 24.878 7.62204C24.9561 7.70018 25 7.80616 25 7.91667V10C25 10.1105 24.9561 10.2165 24.878 10.2946C24.7998 10.3728 24.6938 10.4167 24.5833 10.4167ZM24.5833 16.6667H10.4167C10.3062 16.6667 10.2002 16.6228 10.122 16.5446C10.0439 16.4665 10 16.3605 10 16.25V14.1667C10 14.0562 10.0439 13.9502 10.122 13.872C10.2002 13.7939 10.3062 13.75 10.4167 13.75H24.5833C24.6938 13.75 24.7998 13.7939 24.878 13.872C24.9561 13.9502 25 14.0562 25 14.1667V16.25C25 16.3605 24.9561 16.4665 24.878 16.5446C24.7998 16.6228 24.6938 16.6667 24.5833 16.6667ZM24.5833 22.9167H10.4167C10.3062 22.9167 10.2002 22.8728 10.122 22.7946C10.0439 22.7165 10 22.6105 10 22.5V20.4167C10 20.3062 10.0439 20.2002 10.122 20.122C10.2002 20.0439 10.3062 20 10.4167 20H24.5833C24.6938 20 24.7998 20.0439 24.878 20.122C24.9561 20.2002 25 20.3062 25 20.4167V22.5C25 22.6105 24.9561 22.7165 24.878 22.7946C24.7998 22.8728 24.6938 22.9167 24.5833 22.9167ZM7.5 10.4167H5.41667C5.30616 10.4167 5.20018 10.3728 5.12204 10.2946C5.0439 10.2165 5 10.1105 5 10V7.91667C5 7.80616 5.0439 7.70018 5.12204 7.62204C5.20018 7.5439 5.30616 7.5 5.41667 7.5H7.5C7.61051 7.5 7.71649 7.5439 7.79463 7.62204C7.87277 7.70018 7.91667 7.80616 7.91667 7.91667V10C7.91667 10.1105 7.87277 10.2165 7.79463 10.2946C7.71649 10.3728 7.61051 10.4167 7.5 10.4167ZM7.5 16.6667H5.41667C5.30616 16.6667 5.20018 16.6228 5.12204 16.5446C5.0439 16.4665 5 16.3605 5 16.25V14.1667C5 14.0562 5.0439 13.9502 5.12204 13.872C5.20018 13.7939 5.30616 13.75 5.41667 13.75H7.5C7.61051 13.75 7.71649 13.7939 7.79463 13.872C7.87277 13.9502 7.91667 14.0562 7.91667 14.1667V16.25C7.91667 16.3605 7.87277 16.4665 7.79463 16.5446C7.71649 16.6228 7.61051 16.6667 7.5 16.6667ZM7.5 22.9167H5.41667C5.30616 22.9167 5.20018 22.8728 5.12204 22.7946C5.0439 22.7165 5 22.6105 5 22.5V20.4167C5 20.3062 5.0439 20.2002 5.12204 20.122C5.20018 20.0439 5.30616 20 5.41667 20H7.5C7.61051 20 7.71649 20.0439 7.79463 20.122C7.87277 20.2002 7.91667 20.3062 7.91667 20.4167V22.5C7.91667 22.6105 7.87277 22.7165 7.79463 22.7946C7.71649 22.8728 7.61051 22.9167 7.5 22.9167Z" stroke="black" stroke-width="0.694444" stroke-miterlimit="10" stroke-linecap="round" stroke-linejoin="round"/>
</svg>
