<svg width="50" height="50" viewBox="0 0 50 50" fill="none" xmlns="http://www.w3.org/2000/svg">
<circle cx="25" cy="25" r="25" fill="#FF817F"/>
<path d="M17 10.375C17 10.0766 16.8815 9.79048 16.6705 9.5795C16.4595 9.36853 16.1734 9.25 15.875 9.25C15.5766 9.25 15.2905 9.36853 15.0795 9.5795C14.8685 9.79048 14.75 10.0766 14.75 10.375V17.125C14.7497 18.4217 15.1975 19.6787 16.0175 20.6833C16.8376 21.6878 17.9795 22.3782 19.25 22.6375V39.625C19.25 39.9234 19.3685 40.2095 19.5795 40.4205C19.7905 40.6315 20.0766 40.75 20.375 40.75C20.6734 40.75 20.9595 40.6315 21.1705 40.4205C21.3815 40.2095 21.5 39.9234 21.5 39.625V22.6375C22.7705 22.3782 23.9124 21.6878 24.7325 20.6833C25.5525 19.6787 26.0003 18.4217 26 17.125V10.375C26 10.0766 25.8815 9.79048 25.6705 9.5795C25.4595 9.36853 25.1734 9.25 24.875 9.25C24.5766 9.25 24.2905 9.36853 24.0795 9.5795C23.8685 9.79048 23.75 10.0766 23.75 10.375V17.125C23.7504 17.8232 23.5342 18.5044 23.1312 19.0746C22.7282 19.6448 22.1583 20.076 21.5 20.3088V10.375C21.5 10.0766 21.3815 9.79048 21.1705 9.5795C20.9595 9.36853 20.6734 9.25 20.375 9.25C20.0766 9.25 19.7905 9.36853 19.5795 9.5795C19.3685 9.79048 19.25 10.0766 19.25 10.375V20.3088C18.5917 20.076 18.0218 19.6448 17.6188 19.0746C17.2158 18.5044 16.9996 17.8232 17 17.125V10.375ZM32.75 39.625V25H29.375C29.0766 25 28.7905 24.8815 28.5795 24.6705C28.3685 24.4595 28.25 24.1734 28.25 23.875V14.875C28.25 13.3833 28.9835 11.9883 29.9847 10.9848C30.9883 9.9835 32.3832 9.25 33.875 9.25C34.1734 9.25 34.4595 9.36853 34.6705 9.5795C34.8815 9.79048 35 10.0766 35 10.375V39.625C35 39.9234 34.8815 40.2095 34.6705 40.4205C34.4595 40.6315 34.1734 40.75 33.875 40.75C33.5766 40.75 33.2905 40.6315 33.0795 40.4205C32.8685 40.2095 32.75 39.9234 32.75 39.625Z" fill="black"/>
</svg>
