<svg width="25" height="25" viewBox="0 0 25 25" fill="none" xmlns="http://www.w3.org/2000/svg">
<circle cx="12.5" cy="12.5" r="12.5" fill="#9ADCFF"/>
<path d="M10.3363 15.849L10.5312 15.6345V14.577L7.33716 7.83398H5.85034L2.65625 14.577V15.6861L2.82991 15.8746C3.30688 16.391 3.88547 16.8033 4.52935 17.0855C5.17323 17.3677 5.86851 17.5137 6.57152 17.5145H6.58875C7.29465 17.5113 7.99222 17.3617 8.6373 17.075C9.28238 16.7883 9.86092 16.3709 10.3363 15.849V15.849ZM9.21875 15.1187C8.51853 15.8142 7.57119 16.2037 6.58428 16.202H6.57074C5.60119 16.2069 4.66789 15.8339 3.96875 15.1621V14.8723L6.59375 9.33056L9.21875 14.8723V15.1187ZM19.1497 7.83398H17.6628L14.4688 14.577V15.6861L14.6424 15.8746C15.1194 16.391 15.698 16.8033 16.3419 17.0855C16.9857 17.3677 17.681 17.5137 18.384 17.5145H18.4012C19.1072 17.5113 19.8047 17.3617 20.4498 17.075C21.0949 16.7883 21.6734 16.3708 22.1488 15.8489L22.3438 15.6345V14.577L19.1497 7.83398ZM21.0312 15.1187C20.331 15.8142 19.3837 16.2037 18.3968 16.202H18.3832C17.4137 16.2069 16.4804 15.8339 15.7812 15.1621V14.8723L18.4062 9.33056L21.0312 14.8723V15.1187Z" fill="black"/>
<path d="M13.1562 8.0661C13.5213 7.95637 13.8535 7.75784 14.123 7.48829C14.3926 7.21874 14.5911 6.88657 14.7009 6.5215H19.0625V5.209H14.7009C14.5596 4.73499 14.2691 4.31926 13.8725 4.02365C13.476 3.72804 12.9946 3.56836 12.5 3.56836C12.0054 3.56836 11.524 3.72804 11.1275 4.02365C10.7309 4.31926 10.4404 4.73499 10.2991 5.209H5.9375V6.5215H10.2991C10.4089 6.88657 10.6074 7.21874 10.877 7.48829C11.1465 7.75784 11.4787 7.95637 11.8438 8.0661V18.9902H7.57812V20.3027H17.4219V18.9902H13.1562V8.0661ZM11.5156 5.86525C11.5156 5.67055 11.5734 5.48024 11.6815 5.31836C11.7897 5.15648 11.9434 5.03031 12.1233 4.9558C12.3032 4.8813 12.5011 4.8618 12.692 4.89978C12.883 4.93777 13.0584 5.03152 13.1961 5.16919C13.3337 5.30685 13.4275 5.48225 13.4655 5.6732C13.5034 5.86415 13.4839 6.06208 13.4094 6.24195C13.3349 6.42182 13.2088 6.57556 13.0469 6.68372C12.885 6.79189 12.6947 6.84962 12.5 6.84962C12.2389 6.84962 11.9885 6.74591 11.8039 6.5613C11.6193 6.3767 11.5156 6.12632 11.5156 5.86525Z" fill="black"/>
</svg>
